<?xml version="1.0" encoding="UTF-8"?>
<svg width="28px" height="28px" viewBox="0 0 28 28" version="1.1" xmlns="http://www.w3.org/2000/svg" xmlns:xlink="http://www.w3.org/1999/xlink">
  <title>tool-info</title>
  <g id="tool-info" stroke="none" stroke-width="1" fill="none" fill-rule="evenodd">
    <path d="M14.25 3C8.03719 3 3 8.03719 3 14.25C3 20.4628 8.03719 25.5 14.25 25.5C20.4628 25.5 25.5 20.4628 25.5 14.25C25.5 8.03719 20.4628 3 14.25 3ZM14.2491 8.39062C14.8959 8.39062 15.4219 8.91563 15.4219 9.5625C15.4219 10.2094 14.8959 10.7344 14.2491 10.7344C13.6022 10.7344 13.0781 10.2094 13.0781 9.5625C13.0781 8.91563 13.6022 8.39062 14.2491 8.39062ZM16.125 19.875H12.375V18.9375C12.8287 18.7697 13.3125 18.7491 13.3125 18.2484V14.0606C13.3125 13.56 12.8287 13.4813 12.375 13.3134V12.3759H15.1875V18.2494C15.1875 18.7509 15.6722 18.7725 16.125 18.9384V19.875Z" fill="currentColor"/>
  </g>
</svg>